{
	"asset":{
		"generator":"Khronos glTF Blender I/O v4.4.55",
		"version":"2.0"
	},
	"extensionsUsed":[
		"KHR_materials_clearcoat",
		"KHR_materials_specular",
		"KHR_materials_ior"
	],
	"scene":0,
	"scenes":[
		{
			"extras":{
				"dream_textures_prompt":{
					"seamless":1,
					"prompt_structure_token_subject":"cement floor grunge ",
					"show_advanced":0
				}
			},
			"name":"Scene",
			"nodes":[
				0,
				2,
				3
			]
		}
	],
	"nodes":[
		{
			"camera":0,
			"name":"Camera",
			"rotation":[
				-0.3129603862762451,
				0.33007922768592834,
				0.11701028048992157,
				0.8828431963920593
			],
			"translation":[
				67.8001937866211,
				84.78038787841797,
				76.74922943115234
			]
		},
		{
			"mesh":0,
			"name":"GN Instance"
		},
		{
			"children":[
				1
			],
			"mesh":1,
			"name":"CartFrame",
			"rotation":[
				-0.5,
				0.5,
				-0.5,
				0.5
			]
		},
		{
			"name":"GPencil"
		}
	],
	"cameras":[
		{
			"name":"Camera",
			"perspective":{
				"aspectRatio":1,
				"yfov":0.14127399027347565,
				"zfar":150.25552368164062,
				"znear":0.0010000000474974513
			},
			"type":"perspective"
		}
	],
	"materials":[
		{
			"doubleSided":true,
			"extensions":{
				"KHR_materials_clearcoat":{
					"clearcoatRoughnessFactor":0
				},
				"KHR_materials_specular":{
					"specularFactor":0
				},
				"KHR_materials_ior":{
					"ior":0
				}
			},
			"name":"Tire",
			"pbrMetallicRoughness":{
				"baseColorFactor":[
					0,
					0,
					0,
					1
				],
				"metallicFactor":0,
				"roughnessFactor":0
			}
		}
	],
	"meshes":[
		{
			"name":"NurbsPath.022",
			"primitives":[
				{
					"attributes":{
						"POSITION":0,
						"TEXCOORD_0":1
					},
					"indices":2,
					"material":0
				}
			]
		},
		{
			"name":"NurbsPath.022",
			"primitives":[
				{
					"attributes":{
						"POSITION":3,
						"TEXCOORD_0":4
					},
					"indices":2,
					"material":0
				}
			]
		}
	],
	"accessors":[
		{
			"bufferView":0,
			"componentType":5126,
			"count":606368,
			"max":[
				3.8840692043304443,
				6.020435333251953,
				1.7412340641021729
			],
			"min":[
				-6.950453281402588,
				-4.618566513061523,
				-5.70298957824707
			],
			"type":"VEC3"
		},
		{
			"bufferView":1,
			"componentType":5126,
			"count":606368,
			"type":"VEC2"
		},
		{
			"bufferView":2,
			"componentType":5125,
			"count":3637440,
			"type":"SCALAR"
		},
		{
			"bufferView":3,
			"componentType":5126,
			"count":606368,
			"max":[
				3.8840692043304443,
				6.020435333251953,
				1.7412340641021729
			],
			"min":[
				-6.950453281402588,
				-4.618566513061523,
				-5.70298957824707
			],
			"type":"VEC3"
		},
		{
			"bufferView":4,
			"componentType":5126,
			"count":606368,
			"type":"VEC2"
		}
	],
	"bufferViews":[
		{
			"buffer":0,
			"byteLength":7276416,
			"byteOffset":0,
			"target":34962
		},
		{
			"buffer":0,
			"byteLength":4850944,
			"byteOffset":7276416,
			"target":34962
		},
		{
			"buffer":0,
			"byteLength":14549760,
			"byteOffset":12127360,
			"target":34963
		},
		{
			"buffer":0,
			"byteLength":7276416,
			"byteOffset":26677120,
			"target":34962
		},
		{
			"buffer":0,
			"byteLength":4850944,
			"byteOffset":33953536,
			"target":34962
		}
	],
	"buffers":[
		{
			"byteLength":38804480,
			"uri":"FutureCart.bin"
		}
	]
}
